<?xml version="1.0" encoding="utf-8"?>
<!-- Generator: Adobe Illustrator 26.0.1, SVG Export Plug-In . SVG Version: 6.00 Build 0)  -->
<svg version="1.1" id="Calque_1" xmlns="http://www.w3.org/2000/svg" xmlns:xlink="http://www.w3.org/1999/xlink" x="0px" y="0px"
	 viewBox="0 0 1682 956" style="enable-background:new 0 0 1682 956;" xml:space="preserve">
<style type="text/css">
	.st0{fill:#FFFFFF;stroke:#000000;stroke-miterlimit:10;}
	.st1{stroke:#000000;stroke-miterlimit:10;}
	.st2{fill:#CE1500;stroke:#CE1519;stroke-miterlimit:10;}
	.st3{fill:#CE1500;}
	.st4{fill:#CE1500;stroke:url(#SVGID_1_);stroke-miterlimit:10;}
	.st5{fill:url(#SVGID_00000017490991513704729320000004974073593857297038_);}
	.st6{fill:url(#SVGID_00000163787461829293279480000003426042375049782677_);}
	.st7{fill:url(#SVGID_00000117656855445093824170000009656135811678417564_);}
	.st8{fill:url(#SVGID_00000000221467320633529250000015735881897558804927_);}
	.st9{fill:url(#SVGID_00000091699073275617861660000004370603489638625921_);}
	.st10{fill:url(#SVGID_00000181766985658731582270000007820618096293451704_);}
	.st11{fill:url(#SVGID_00000176746631017640964310000013945996730389215892_);}
	.st12{fill:url(#SVGID_00000076567453195297243810000016881084018390048920_);}
	.st13{fill:#750C06;}
	
		.st14{fill:url(#SVGID_00000093171968021948397740000002782627641235894961_);stroke:url(#SVGID_00000044894258433402271560000007684457814086642832_);stroke-miterlimit:10;}
	
		.st15{fill:url(#SVGID_00000091706082909607455590000012273912626495800495_);stroke:url(#SVGID_00000159447749952608875720000014925808841940557213_);stroke-miterlimit:10;}
	.st16{fill:url(#SVGID_00000007412690898167133210000003030787831870233997_);}
	.st17{fill:url(#SVGID_00000170280301146607965950000011083533669530308542_);}
	.st18{fill:url(#SVGID_00000182520122767266157930000008910636357618181049_);}
	.st19{fill:#F89C0F;stroke:#000000;stroke-miterlimit:10;}
</style>
<rect x="1188.8" y="608.11" transform="matrix(-1 -1.224647e-16 1.224647e-16 -1 2793.5603 1224.9799)" width="415.96" height="8.76"/>
<rect x="81.24" y="605.19" width="394.47" height="10.22"/>
<path class="st0" d="M458.65,410.33"/>
<path class="st1" d="M201.99,330.05"/>
<g>
	<g>
		<path d="M56.64,156.22c1.93,0,1.93-3,0-3C54.71,153.22,54.7,156.22,56.64,156.22L56.64,156.22z"/>
	</g>
</g>
<g>
	<g>
		<path d="M27.46,201.13c1.93,0,1.93-3,0-3C25.53,198.13,25.53,201.13,27.46,201.13L27.46,201.13z"/>
	</g>
</g>
<g>
	<g>
		<path d="M62.47,196.64c1.93,0,1.93-3,0-3C60.54,193.64,60.54,196.64,62.47,196.64L62.47,196.64z"/>
	</g>
</g>
<g>
	<g>
		<path d="M62.47,196.64c1.93,0,1.93-3,0-3C60.54,193.64,60.54,196.64,62.47,196.64L62.47,196.64z"/>
	</g>
</g>
<g>
	<g>
		<path d="M62.47,196.64c1.93,0,1.93-3,0-3C60.54,193.64,60.54,196.64,62.47,196.64L62.47,196.64z"/>
	</g>
</g>
<path class="st1" d="M122.33,392.81"/>
<path class="st1" d="M429.57,114.02"/>
<path class="st1" d="M125.01,136.89c17.71,7.84,42.16,17.71,71.92,26.75c3.61,1.1,21.91,6.62,44.25,11.68
	c120.29,27.22,213.67,24.81,213.67,24.81c16.01-0.41,55.63-2.09,107.54,7.7c0,0,5,0.97,10.19,2.04
	c205.89,42.51,370.66,127.08,367.92,137.21c-2.56,9.47-145.7-68.27-367.92-77.36c-118.33-4.84-226.05,18.12-352.75,42.33
	c-56.54,10.8-86.33,20.41-110.14,29.67c-49.88,19.4-78.59,39.25-80.92,35.03c-2.28-4.14,21.64-29.93,144.13-129.91"/>
<path class="st2" d="M496.98,182.06c0.03-4.72,67.62-11.42,142.47-5.27c23.18,1.9,43.76,4.87,61.21,8.01
	c-0.39-0.42-0.56-0.65-0.53-0.71c0.33-0.51,18.96,14.75,55.91,45.79c-29.43-9.21-74.02-21.69-129.24-31.2
	C547.83,185.09,496.95,186.15,496.98,182.06z"/>
<g>
	<path class="st3" d="M1196.97,219.18c-17.45,0-32.39-7.93-33.6-14.75c-0.37-2.06,0.53-4.29,1.48-6.64
		c1.31-3.26,2.8-6.95,1.26-11.07c-0.67-1.79-1.81-2.78-3.25-4.03c-0.79-0.69-1.69-1.47-2.69-2.53c-2.33-2.48-6.53-6.49-15.98-12.55
		c-26.21-16.81-50.62-23.08-84.87-30.72c-13.23-2.95-31.35-6.99-56.94-10.23c-33.57-4.24-58.39-4.3-89.83-4.38l-3.13,0
		c-22.56,0-33.28,0.67-44.63,1.37c-10.42,0.65-21.19,1.31-42.01,1.55l-0.39,0c-28.65,0.33-122.95,2.63-133.44,18.59
		c-1.6,2.44-5.01,10.77-4.63,15.35c0.37,4.4,2.03,7.17,2.1,7.28l12.68,17.08l-81.69-5.56c-9.84-0.79-19.85-1.35-29.77-1.66
		c-6.22-0.2-12.47-0.29-18.56-0.29c-12.09,0-24.13,0.39-35.77,1.17c-12.01,0.8-20.62,1.74-26.31,2.36
		c-3.93,0.43-6.53,0.71-8.01,0.71c-0.66,0-0.95-0.06-1.08-0.1c1.73-3.68,61.28-23.37,107.56-36.43
		c74.57-21.05,176.69-49.87,305.85-49.87c27.79,0,55.94,1.37,83.67,4.08c86.19,8.42,172.24,30.37,242.3,61.82
		c13.24,5.94,26.48,12.36,39.37,19.08c-0.38,0.11-0.81,0.23-1.27,0.37c-17.71,5.32-27.86,14.01-36.83,21.68
		c-6.01,5.14-11.69,10-18.98,13.43C1212.65,217.53,1205.05,219.18,1196.97,219.18z"/>
	<path class="st3" d="M911.3,94.32c27.77,0,55.91,1.37,83.62,4.08c86.14,8.41,172.14,30.35,242.15,61.78
		c12.86,5.77,25.71,11.99,38.24,18.49c-0.03,0.01-0.05,0.02-0.08,0.02c-17.81,5.35-28.01,14.08-37.01,21.78
		c-5.98,5.12-11.64,9.95-18.87,13.35c-6.85,3.22-14.38,4.85-22.38,4.85c-8.09,0-16.19-1.72-22.78-4.83
		c-5.9-2.79-9.76-6.34-10.33-9.51c-0.34-1.92,0.53-4.08,1.45-6.37c1.35-3.34,2.87-7.13,1.26-11.43c-0.71-1.9-1.89-2.93-3.39-4.23
		c-0.78-0.68-1.67-1.45-2.65-2.5c-2.35-2.5-6.58-6.54-16.08-12.63c-26.28-16.86-50.73-23.13-85.03-30.79
		c-13.24-2.95-31.37-7-56.99-10.23c-33.59-4.24-58.44-4.31-89.89-4.39c-1.07,0-2.11,0-3.13,0c-22.58,0-33.31,0.67-44.66,1.37
		c-10.41,0.65-21.18,1.31-41.99,1.55l-0.39,0c-36.8,0.42-123.52,3.09-133.85,18.82c-1.83,2.79-5.1,11.06-4.71,15.67
		c0.37,4.49,2.09,7.38,2.17,7.5l0.02,0.04l0.03,0.04l6.03,8.12l5.43,7.31c0.2,0.27,0.39,0.52,0.56,0.75l-40.68-2.77l-39.91-2.72
		c-9.85-0.79-19.87-1.35-29.8-1.66c-6.23-0.2-12.48-0.29-18.58-0.29c-12.11,0-24.16,0.39-35.81,1.17
		c-12.02,0.8-20.63,1.74-26.33,2.36c-3.68,0.4-6.18,0.67-7.67,0.71c2.33-1.46,10.29-5.27,37.49-14.36
		c20.75-6.94,47.13-15.05,68.85-21.19C680.12,123.13,782.21,94.32,911.3,94.32 M911.3,93.32c-129.24,0-232.31,29.09-305.99,49.89
		c-43.96,12.41-108.66,33.4-107.94,37.07c0.06,0.31,0.57,0.44,1.59,0.44c3.7,0,14.13-1.72,34.35-3.07
		c9.92-0.66,21.86-1.17,35.74-1.17c5.84,0,12.02,0.09,18.55,0.29c12.35,0.39,22.61,1.09,29.75,1.66
		c27.59,1.88,55.18,3.76,82.77,5.64c0,0-4.63-6.23-13.3-17.92c0,0-1.66-2.73-2.03-7.06c-0.36-4.35,2.87-12.47,4.55-15.04
		c11.27-17.15,121.28-18.23,133.42-18.37c43.74-0.5,43.58-2.92,86.64-2.92c1.02,0,2.06,0,3.13,0c32.58,0.08,56.9,0.23,89.77,4.38
		c25.06,3.16,43.12,7.14,56.89,10.22c33.55,7.49,58.42,13.79,84.71,30.65c8.69,5.58,13.11,9.52,15.89,12.47
		c2.83,3.01,4.86,3.79,5.83,6.39c2.58,6.88-3.67,12.48-2.76,17.63c1.26,7.08,16.4,15.16,34.09,15.16c7.43,0,15.31-1.42,22.8-4.95
		c18.46-8.68,26.48-26.29,55.74-35.08c1.06-0.32,1.93-0.56,2.48-0.71c-9.36-4.9-23.33-11.97-40.51-19.68
		c-26.25-11.78-114-49.31-242.46-61.86C966.01,94.57,938.09,93.32,911.3,93.32L911.3,93.32z M1277.99,178.95
		C1277.99,178.95,1277.99,178.95,1277.99,178.95c0.04,0.02,0.08,0.05,0.12,0.07c0,0-0.03-0.02-0.09-0.05
		C1278.01,178.95,1277.99,178.95,1277.99,178.95L1277.99,178.95z"/>
</g>
<path class="st1" d="M1559.69,339.53"/>
<path class="st1" d="M1036.45,251.22"/>
<path class="st1" d="M1017.53,229.88"/>
<linearGradient id="SVGID_1_" gradientUnits="userSpaceOnUse" x1="975.8903" y1="221.9422" x2="1566.7538" y2="221.9422">
	<stop  offset="0" style="stop-color:#CCE0F4"/>
	<stop  offset="0" style="stop-color:#C3DCF2;stop-opacity:0.8871"/>
	<stop  offset="0" style="stop-color:#A9D2EE;stop-opacity:0.6993"/>
	<stop  offset="0" style="stop-color:#80C2E7;stop-opacity:0.4597"/>
	<stop  offset="0" style="stop-color:#47ACDE;stop-opacity:0.1807"/>
	<stop  offset="0" style="stop-color:#1E9CD7;stop-opacity:0"/>
	<stop  offset="0.8652" style="stop-color:#0075BE"/>
	<stop  offset="0.9944" style="stop-color:#005B97"/>
</linearGradient>
<path class="st4" d="M1246.98,188.28c42.16-7.18,63.83-17.2,113.49-17.67c0,0,32.18-0.4,60.76,4.65
	c65.1,11.5,147.42,110.65,144.97,113.92c-1.64,2.19-34.42-47.94-99.5-70.81c-39.38-13.84-74.77-12.76-107.38-10.56
	c-24.91,1.68-58.82,5.88-98.59,16.74c0,0-21.15,2.94-38.98,4.65c-117.79,11.27-248.2-70.03-245.32-74.4
	c1.55-2.36,39.1,22.19,112.34,33.48C1112,191.85,1173.31,200.82,1246.98,188.28z"/>
<path class="st1" d="M1058.13,248.83c118.27,71.68,212.96-42.8,347.61-4.22c135.26,38.76,205.9,205.13,207.24,203.67
	c1.04-1.13-40.12-102.57-131.38-148.83c-146.49-74.25-262.67,69.46-399.58-11.1c-61.26-36.05-99.1-103.88-97.42-105.86
	C985.98,180.87,1015.17,222.79,1058.13,248.83z"/>
<path class="st1" d="M1425.86,217.65"/>
<g>
	<g>
	</g>
</g>
<g>
	<g>
		
			<linearGradient id="SVGID_00000004521529582226001100000010381635208653965221_" gradientUnits="userSpaceOnUse" x1="139.3793" y1="448.7126" x2="1493.4694" y2="448.7126">
			<stop  offset="0" style="stop-color:#CCE0F4"/>
			<stop  offset="0" style="stop-color:#C9D8EB"/>
			<stop  offset="0" style="stop-color:#C0C1D1"/>
			<stop  offset="0" style="stop-color:#B19CA8"/>
			<stop  offset="0" style="stop-color:#9D696E"/>
			<stop  offset="0" style="stop-color:#832925"/>
			<stop  offset="0" style="stop-color:#7C1812"/>
			<stop  offset="0.6859" style="stop-color:#760D07"/>
			<stop  offset="0.8618" style="stop-color:#750C06"/>
			<stop  offset="0.9322" style="stop-color:#FFFFFF"/>
			<stop  offset="0.9824" style="stop-color:#FFFFFF"/>
		</linearGradient>
		<path style="fill:url(#SVGID_00000004521529582226001100000010381635208653965221_);" d="M284.19,483.2l-1.83,46.85
			c-4.19,1.34-8.71,2.54-13.55,3.61c-4.84,1.07-9.75,1.97-14.73,2.72c-4.98,0.75-9.89,1.32-14.73,1.71
			c-4.84,0.39-9.36,0.59-13.55,0.59c-13.36,0-25.38-2.05-36.07-6.15c-10.69-4.1-19.77-9.96-27.23-17.57
			c-7.46-7.61-13.18-16.86-17.15-27.74c-3.97-10.88-5.96-23.15-5.96-36.8c0-13.96,2.09-26.58,6.28-37.86
			c4.19-11.28,10.17-20.92,17.94-28.93c7.77-8,17.17-14.16,28.22-18.46c11.04-4.3,23.37-6.45,36.99-6.45c3.84,0,7.9,0.18,12.18,0.53
			c4.28,0.35,8.62,0.87,13.03,1.54c4.41,0.67,8.77,1.48,13.09,2.43s8.49,2.01,12.5,3.19l1.57,43.18h-9.17
			c-0.79-8.6-2.51-15.6-5.17-21c-2.66-5.4-6-9.6-10.02-12.6c-4.02-3-8.56-5.05-13.62-6.15c-5.06-1.1-10.43-1.66-16.1-1.66
			c-5.76,0-11.22,0.47-16.37,1.42c-5.15,0.95-9.93,2.6-14.34,4.97c-4.41,2.37-8.38,5.52-11.92,9.46c-3.53,3.94-6.53,8.95-8.97,15.03
			c-2.44,6.07-4.34,13.27-5.7,21.59c-1.35,8.32-2.03,18-2.03,29.05c0,10.96,0.65,20.53,1.96,28.69c1.31,8.16,3.16,15.2,5.56,21.12
			c2.4,5.92,5.32,10.79,8.77,14.61c3.45,3.83,7.29,6.86,11.52,9.11c4.23,2.25,8.84,3.81,13.81,4.67c4.98,0.87,10.21,1.3,15.71,1.3
			c6.63,0,12.77-0.69,18.4-2.07c5.63-1.38,10.61-3.8,14.93-7.28c4.32-3.47,7.9-8.16,10.74-14.08c2.84-5.92,4.78-13.45,5.83-22.6
			H284.19z"/>
		
			<linearGradient id="SVGID_00000127002137214169042830000007876102789160036274_" gradientUnits="userSpaceOnUse" x1="139.3793" y1="448.7126" x2="1493.4694" y2="448.7126">
			<stop  offset="0" style="stop-color:#CCE0F4"/>
			<stop  offset="0" style="stop-color:#C9D8EB"/>
			<stop  offset="0" style="stop-color:#C0C1D1"/>
			<stop  offset="0" style="stop-color:#B19CA8"/>
			<stop  offset="0" style="stop-color:#9D696E"/>
			<stop  offset="0" style="stop-color:#832925"/>
			<stop  offset="0" style="stop-color:#7C1812"/>
			<stop  offset="0.6859" style="stop-color:#760D07"/>
			<stop  offset="0.8618" style="stop-color:#750C06"/>
			<stop  offset="0.9322" style="stop-color:#FFFFFF"/>
			<stop  offset="0.9824" style="stop-color:#FFFFFF"/>
		</linearGradient>
		<path style="fill:url(#SVGID_00000127002137214169042830000007876102789160036274_);" d="M363.2,525.2v9.46h-63.77v-9.46h24.88
			l68.09-164.22h10.34l63.9,164.22h25.92v9.46h-80.53v-9.46h27.23l-19.64-50.52h-61.8l-20.82,50.52H363.2z M389.52,398.37
			l-27.63,66.73h54.08l-25.93-66.73H389.52z"/>
		
			<linearGradient id="SVGID_00000049190481361128279840000008722213361022888595_" gradientUnits="userSpaceOnUse" x1="139.3793" y1="448.7126" x2="1493.4694" y2="448.7126">
			<stop  offset="0" style="stop-color:#CCE0F4"/>
			<stop  offset="0" style="stop-color:#C9D8EB"/>
			<stop  offset="0" style="stop-color:#C0C1D1"/>
			<stop  offset="0" style="stop-color:#B19CA8"/>
			<stop  offset="0" style="stop-color:#9D696E"/>
			<stop  offset="0" style="stop-color:#832925"/>
			<stop  offset="0" style="stop-color:#7C1812"/>
			<stop  offset="0.6859" style="stop-color:#760D07"/>
			<stop  offset="0.8618" style="stop-color:#750C06"/>
			<stop  offset="0.9322" style="stop-color:#FFFFFF"/>
			<stop  offset="0.9824" style="stop-color:#FFFFFF"/>
		</linearGradient>
		<path style="fill:url(#SVGID_00000049190481361128279840000008722213361022888595_);" d="M572.74,362.76
			c13.88,0,25.58,0.95,35.09,2.84c9.51,1.89,17.2,4.58,23.04,8.05c5.85,3.47,10.04,7.67,12.57,12.6c2.53,4.93,3.8,10.39,3.8,16.39
			c0,5.21-0.9,10.14-2.68,14.79c-1.79,4.65-4.47,8.87-8.05,12.66c-3.58,3.79-8.05,7.04-13.42,9.76c-5.37,2.72-11.68,4.79-18.92,6.21
			v0.47c6.02,1.26,10.98,3.12,14.86,5.56c3.88,2.45,7.03,5.44,9.43,8.99c2.4,3.55,4.28,7.59,5.63,12.13
			c1.35,4.54,2.55,9.52,3.6,14.97c1.05,5.6,1.98,10.71,2.82,15.32c0.83,4.61,1.94,8.6,3.34,11.95c1.4,3.35,3.29,5.96,5.7,7.81
			c2.4,1.85,5.74,2.78,10.02,2.78c0.79,0,1.9-0.04,3.34-0.12c1.44-0.08,3.03-0.24,4.78-0.47v9.11c-1.49,0.31-3.1,0.59-4.84,0.83
			c-1.75,0.24-3.51,0.41-5.3,0.53c-1.79,0.12-3.53,0.2-5.24,0.24c-1.7,0.04-3.21,0.06-4.52,0.06c-7.59,0-13.55-0.73-17.87-2.19
			c-4.32-1.46-7.64-3.73-9.95-6.8c-2.31-3.08-3.95-6.94-4.91-11.59c-0.96-4.65-1.88-10.17-2.75-16.56
			c-1.31-9.31-2.62-17.11-3.93-23.43c-1.31-6.31-3.14-11.38-5.5-15.2c-2.36-3.82-5.54-6.55-9.56-8.16
			c-4.02-1.62-9.47-2.43-16.37-2.43h-24.62v75.36h27.5v9.46H500.6v-9.46h26.19V372.22H500.6v-9.46H572.74z M552.32,440.37h17.41
			c9.43,0,17.3-0.71,23.63-2.13c6.33-1.42,11.43-3.65,15.32-6.68c3.88-3.04,6.63-6.9,8.25-11.59c1.61-4.69,2.42-10.35,2.42-16.98
			c0-5.52-0.65-10.23-1.96-14.14c-1.31-3.9-3.73-7.08-7.27-9.52c-3.54-2.44-8.42-4.24-14.67-5.38c-6.24-1.14-14.34-1.72-24.29-1.72
			h-18.85V440.37z"/>
		
			<linearGradient id="SVGID_00000092431641491316554760000016206036806785828502_" gradientUnits="userSpaceOnUse" x1="139.3793" y1="448.7126" x2="1493.4694" y2="448.7126">
			<stop  offset="0" style="stop-color:#CCE0F4"/>
			<stop  offset="0" style="stop-color:#C9D8EB"/>
			<stop  offset="0" style="stop-color:#C0C1D1"/>
			<stop  offset="0" style="stop-color:#B19CA8"/>
			<stop  offset="0" style="stop-color:#9D696E"/>
			<stop  offset="0" style="stop-color:#832925"/>
			<stop  offset="0" style="stop-color:#7C1812"/>
			<stop  offset="0.6859" style="stop-color:#760D07"/>
			<stop  offset="0.8618" style="stop-color:#750C06"/>
			<stop  offset="0.9322" style="stop-color:#FFFFFF"/>
			<stop  offset="0.9824" style="stop-color:#FFFFFF"/>
		</linearGradient>
		<path style="fill:url(#SVGID_00000092431641491316554760000016206036806785828502_);" d="M826.6,362.76
			c13.88,0,25.57,0.95,35.09,2.84c9.51,1.89,17.2,4.58,23.04,8.05c5.85,3.47,10.04,7.67,12.57,12.6c2.53,4.93,3.8,10.39,3.8,16.39
			c0,5.21-0.9,10.14-2.68,14.79c-1.79,4.65-4.47,8.87-8.05,12.66c-3.58,3.79-8.05,7.04-13.42,9.76c-5.37,2.72-11.68,4.79-18.92,6.21
			v0.47c6.02,1.26,10.98,3.12,14.86,5.56c3.88,2.45,7.03,5.44,9.43,8.99c2.4,3.55,4.28,7.59,5.63,12.13
			c1.35,4.54,2.55,9.52,3.6,14.97c1.05,5.6,1.98,10.71,2.82,15.32c0.83,4.61,1.94,8.6,3.34,11.95c1.4,3.35,3.29,5.96,5.7,7.81
			c2.4,1.85,5.74,2.78,10.02,2.78c0.79,0,1.9-0.04,3.34-0.12c1.44-0.08,3.03-0.24,4.78-0.47v9.11c-1.49,0.31-3.1,0.59-4.84,0.83
			c-1.75,0.24-3.51,0.41-5.3,0.53c-1.79,0.12-3.54,0.2-5.24,0.24c-1.7,0.04-3.21,0.06-4.52,0.06c-7.59,0-13.55-0.73-17.87-2.19
			c-4.32-1.46-7.64-3.73-9.95-6.8c-2.31-3.08-3.95-6.94-4.91-11.59c-0.96-4.65-1.88-10.17-2.75-16.56
			c-1.31-9.31-2.62-17.11-3.93-23.43c-1.31-6.31-3.14-11.38-5.5-15.2c-2.36-3.82-5.54-6.55-9.56-8.16
			c-4.02-1.62-9.47-2.43-16.37-2.43h-24.62v75.36h27.5v9.46h-79.22v-9.46h26.19V372.22h-26.19v-9.46H826.6z M806.17,440.37h17.41
			c9.43,0,17.3-0.71,23.63-2.13c6.33-1.42,11.43-3.65,15.32-6.68c3.88-3.04,6.63-6.9,8.25-11.59c1.61-4.69,2.42-10.35,2.42-16.98
			c0-5.52-0.65-10.23-1.96-14.14c-1.31-3.9-3.73-7.08-7.27-9.52c-3.53-2.44-8.43-4.24-14.66-5.38c-6.24-1.14-14.34-1.72-24.29-1.72
			h-18.85V440.37z"/>
		
			<linearGradient id="SVGID_00000158722293365743320190000005332395420466611084_" gradientUnits="userSpaceOnUse" x1="139.3793" y1="448.7126" x2="1493.4694" y2="448.7126">
			<stop  offset="0" style="stop-color:#CCE0F4"/>
			<stop  offset="0" style="stop-color:#C9D8EB"/>
			<stop  offset="0" style="stop-color:#C0C1D1"/>
			<stop  offset="0" style="stop-color:#B19CA8"/>
			<stop  offset="0" style="stop-color:#9D696E"/>
			<stop  offset="0" style="stop-color:#832925"/>
			<stop  offset="0" style="stop-color:#7C1812"/>
			<stop  offset="0.6859" style="stop-color:#760D07"/>
			<stop  offset="0.8618" style="stop-color:#750C06"/>
			<stop  offset="0.9322" style="stop-color:#FFFFFF"/>
			<stop  offset="0.9824" style="stop-color:#FFFFFF"/>
		</linearGradient>
		<path style="fill:url(#SVGID_00000158722293365743320190000005332395420466611084_);" d="M943.31,450.31
			c0-14.12,2.12-26.82,6.35-38.1c4.23-11.28,10.15-20.88,17.74-28.81c7.59-7.93,16.65-14.02,27.17-18.28
			c10.52-4.26,22.06-6.39,34.63-6.39c12.39,0,23.68,2.07,33.85,6.21c10.17,4.14,18.87,10.04,26.12,17.69
			c7.24,7.65,12.85,16.92,16.83,27.8c3.97,10.88,5.96,23.07,5.96,36.56c0,13.25-1.94,25.5-5.83,36.74
			c-3.89,11.24-9.49,20.92-16.83,29.05c-7.33,8.13-16.3,14.48-26.91,19.05c-10.6,4.57-22.59,6.86-35.94,6.86
			c-12.57,0-23.96-2.05-34.17-6.15c-10.21-4.1-18.94-9.98-26.19-17.63c-7.25-7.65-12.85-16.94-16.83-27.86
			C945.3,476.12,943.31,463.88,943.31,450.31z M971.72,449.6c0,10.88,0.63,20.41,1.9,28.57c1.26,8.16,3.05,15.18,5.37,21.06
			c2.31,5.88,5.13,10.75,8.45,14.61c3.32,3.87,7.03,6.94,11.13,9.23c4.1,2.29,8.55,3.89,13.36,4.79c4.8,0.91,9.86,1.36,15.19,1.36
			c5.32,0,10.41-0.45,15.25-1.36c4.84-0.91,9.36-2.52,13.55-4.85c4.19-2.32,7.99-5.46,11.39-9.41c3.4-3.94,6.31-8.93,8.71-14.97
			c2.4-6.03,4.26-13.21,5.56-21.53c1.31-8.32,1.96-18.04,1.96-29.16c0-10.88-0.63-20.41-1.9-28.57c-1.27-8.16-3.06-15.2-5.37-21.12
			c-2.31-5.92-5.13-10.8-8.45-14.67c-3.32-3.86-7-6.94-11.06-9.23c-4.06-2.29-8.49-3.88-13.29-4.79c-4.8-0.91-9.87-1.36-15.19-1.36
			c-5.33,0-10.43,0.47-15.32,1.42c-4.89,0.95-9.43,2.56-13.62,4.85c-4.19,2.29-7.99,5.42-11.39,9.41c-3.4,3.98-6.31,8.97-8.71,14.97
			c-2.4,6-4.26,13.17-5.56,21.53C972.38,428.74,971.72,438.48,971.72,449.6z"/>
		
			<linearGradient id="SVGID_00000182506479982814162220000000035002652093578431_" gradientUnits="userSpaceOnUse" x1="139.3793" y1="448.7126" x2="1493.4694" y2="448.7126">
			<stop  offset="0" style="stop-color:#CCE0F4"/>
			<stop  offset="0" style="stop-color:#C9D8EB"/>
			<stop  offset="0" style="stop-color:#C0C1D1"/>
			<stop  offset="0" style="stop-color:#B19CA8"/>
			<stop  offset="0" style="stop-color:#9D696E"/>
			<stop  offset="0" style="stop-color:#832925"/>
			<stop  offset="0" style="stop-color:#7C1812"/>
			<stop  offset="0.6859" style="stop-color:#760D07"/>
			<stop  offset="0.8618" style="stop-color:#750C06"/>
			<stop  offset="0.9322" style="stop-color:#FFFFFF"/>
			<stop  offset="0.9824" style="stop-color:#FFFFFF"/>
		</linearGradient>
		<path style="fill:url(#SVGID_00000182506479982814162220000000035002652093578431_);" d="M1183.76,525.2v9.46h-63.77v-9.46h24.88
			l68.09-164.22h10.34l63.9,164.22h25.93v9.46h-80.53v-9.46h27.23l-19.64-50.52h-61.8l-20.82,50.52H1183.76z M1210.08,398.37
			l-27.63,66.73h54.08l-25.92-66.73H1210.08z"/>
		
			<linearGradient id="SVGID_00000078758044209466723270000003034570609987414179_" gradientUnits="userSpaceOnUse" x1="139.3793" y1="448.7126" x2="1493.4694" y2="448.7126">
			<stop  offset="0" style="stop-color:#CCE0F4"/>
			<stop  offset="0" style="stop-color:#C9D8EB"/>
			<stop  offset="0" style="stop-color:#C0C1D1"/>
			<stop  offset="0" style="stop-color:#B19CA8"/>
			<stop  offset="0" style="stop-color:#9D696E"/>
			<stop  offset="0" style="stop-color:#832925"/>
			<stop  offset="0" style="stop-color:#7C1812"/>
			<stop  offset="0.6859" style="stop-color:#760D07"/>
			<stop  offset="0.8618" style="stop-color:#750C06"/>
			<stop  offset="0.9322" style="stop-color:#FFFFFF"/>
			<stop  offset="0.9824" style="stop-color:#FFFFFF"/>
		</linearGradient>
		<path style="fill:url(#SVGID_00000078758044209466723270000003034570609987414179_);" d="M1321.16,534.67v-9.46h26.19V372.22
			h-26.19v-9.46h79.08c17.63,0,32.41,1.97,44.32,5.92c11.91,3.94,21.49,9.56,28.74,16.86c7.24,7.3,12.42,16.11,15.52,26.44
			c3.1,10.33,4.65,21.89,4.65,34.67c0,7.42-0.55,14.73-1.64,21.95c-1.09,7.22-2.99,14.08-5.7,20.59
			c-2.71,6.51-6.35,12.54-10.93,18.1c-4.58,5.56-10.41,10.37-17.48,14.43c-7.07,4.06-15.5,7.24-25.27,9.52
			c-9.78,2.29-21.17,3.43-34.17,3.43H1321.16z M1372.88,525.2h23.7c13.44,0,24.59-1.18,33.45-3.55c8.86-2.37,15.86-6.51,21.01-12.42
			c5.15-5.92,8.77-13.92,10.87-24.02c2.1-10.1,3.14-22.87,3.14-38.33c0-8.44-0.33-16.17-0.98-23.19c-0.66-7.02-1.86-13.29-3.6-18.81
			c-1.75-5.52-4.17-10.33-7.27-14.43c-3.1-4.1-7.07-7.49-11.91-10.17c-4.84-2.68-10.72-4.69-17.61-6.03
			c-6.9-1.34-15.01-2.01-24.35-2.01h-26.45V525.2z"/>
	</g>
	<g>
		
			<linearGradient id="SVGID_00000070095159220175517200000016741566257717782698_" gradientUnits="userSpaceOnUse" x1="139.3793" y1="448.7126" x2="284.1933" y2="448.7126">
			<stop  offset="0" style="stop-color:#CCE0F4"/>
			<stop  offset="0" style="stop-color:#C9D8EB"/>
			<stop  offset="0" style="stop-color:#C0C1D1"/>
			<stop  offset="0" style="stop-color:#B19CA8"/>
			<stop  offset="0" style="stop-color:#9D696E"/>
			<stop  offset="0" style="stop-color:#832925"/>
			<stop  offset="0" style="stop-color:#7C1812"/>
			<stop  offset="0.2186" style="stop-color:#760D07"/>
			<stop  offset="0.3693" style="stop-color:#750C06"/>
			<stop  offset="0.7261" style="stop-color:#750C06"/>
			<stop  offset="0.8618" style="stop-color:#750C06"/>
			<stop  offset="0.9322" style="stop-color:#FFFFFF"/>
			<stop  offset="0.9824" style="stop-color:#FFFFFF"/>
		</linearGradient>
		<path style="fill:url(#SVGID_00000070095159220175517200000016741566257717782698_);" d="M284.19,483.2l-1.83,46.85
			c-4.19,1.34-8.71,2.54-13.55,3.61c-4.84,1.07-9.75,1.97-14.73,2.72c-4.98,0.75-9.89,1.32-14.73,1.71
			c-4.84,0.39-9.36,0.59-13.55,0.59c-13.36,0-25.38-2.05-36.07-6.15c-10.69-4.1-19.77-9.96-27.23-17.57
			c-7.46-7.61-13.18-16.86-17.15-27.74c-3.97-10.88-5.96-23.15-5.96-36.8c0-13.96,2.09-26.58,6.28-37.86
			c4.19-11.28,10.17-20.92,17.94-28.93c7.77-8,17.17-14.16,28.22-18.46c11.04-4.3,23.37-6.45,36.99-6.45c3.84,0,7.9,0.18,12.18,0.53
			c4.28,0.35,8.62,0.87,13.03,1.54c4.41,0.67,8.77,1.48,13.09,2.43s8.49,2.01,12.5,3.19l1.57,43.18h-9.17
			c-0.79-8.6-2.51-15.6-5.17-21c-2.66-5.4-6-9.6-10.02-12.6c-4.02-3-8.56-5.05-13.62-6.15c-5.06-1.1-10.43-1.66-16.1-1.66
			c-5.76,0-11.22,0.47-16.37,1.42c-5.15,0.95-9.93,2.6-14.34,4.97c-4.41,2.37-8.38,5.52-11.92,9.46c-3.53,3.94-6.53,8.95-8.97,15.03
			c-2.44,6.07-4.34,13.27-5.7,21.59c-1.35,8.32-2.03,18-2.03,29.05c0,10.96,0.65,20.53,1.96,28.69c1.31,8.16,3.16,15.2,5.56,21.12
			c2.4,5.92,5.32,10.79,8.77,14.61c3.45,3.83,7.29,6.86,11.52,9.11c4.23,2.25,8.84,3.81,13.81,4.67c4.98,0.87,10.21,1.3,15.71,1.3
			c6.63,0,12.77-0.69,18.4-2.07c5.63-1.38,10.61-3.8,14.93-7.28c4.32-3.47,7.9-8.16,10.74-14.08c2.84-5.92,4.78-13.45,5.83-22.6
			H284.19z"/>
		<path class="st13" d="M363.2,525.2v9.46h-63.77v-9.46h24.88l68.09-164.22h10.34l63.9,164.22h25.92v9.46h-80.53v-9.46h27.23
			l-19.64-50.52h-61.8l-20.82,50.52H363.2z M389.52,398.37l-27.63,66.73h54.08l-25.93-66.73H389.52z"/>
		
			<linearGradient id="SVGID_00000057116418530165145230000005860242728938587317_" gradientUnits="userSpaceOnUse" x1="500.5988" y1="449.4817" x2="667.6719" y2="449.4817">
			<stop  offset="0.0578" style="stop-color:#750C06"/>
			<stop  offset="0.7588" style="stop-color:#CF1803"/>
			<stop  offset="0.9073" style="stop-color:#EDA9A1"/>
			<stop  offset="1" style="stop-color:#FFFFFF"/>
		</linearGradient>
		
			<linearGradient id="SVGID_00000106124515413187028700000013224854724981009042_" gradientUnits="userSpaceOnUse" x1="500.0988" y1="449.4817" x2="668.1719" y2="449.4817">
			<stop  offset="0.0578" style="stop-color:#EC0000"/>
			<stop  offset="0.2857" style="stop-color:#D11300"/>
			<stop  offset="0.3065" style="stop-color:#CE1500"/>
			<stop  offset="0.4505" style="stop-color:#CB1500"/>
			<stop  offset="0.5371" style="stop-color:#C31400"/>
			<stop  offset="0.6085" style="stop-color:#B51200"/>
			<stop  offset="0.6717" style="stop-color:#A01000"/>
			<stop  offset="0.7294" style="stop-color:#860E00"/>
			<stop  offset="0.7831" style="stop-color:#660A00"/>
			<stop  offset="0.8328" style="stop-color:#400700"/>
			<stop  offset="0.8719" style="stop-color:#1D0300"/>
			<stop  offset="1" style="stop-color:#000000"/>
			<stop  offset="1" style="stop-color:#CCE0F4"/>
			<stop  offset="1" style="stop-color:#CCB0BB"/>
			<stop  offset="1" style="stop-color:#CD7D7D"/>
			<stop  offset="1" style="stop-color:#CD5D57"/>
			<stop  offset="1" style="stop-color:#CD5148"/>
		</linearGradient>
		
			<path style="fill:url(#SVGID_00000057116418530165145230000005860242728938587317_);stroke:url(#SVGID_00000106124515413187028700000013224854724981009042_);stroke-miterlimit:10;" d="
			M572.74,362.76c13.88,0,25.58,0.95,35.09,2.84c9.51,1.89,17.2,4.58,23.04,8.05c5.85,3.47,10.04,7.67,12.57,12.6
			c2.53,4.93,3.8,10.39,3.8,16.39c0,5.21-0.9,10.14-2.68,14.79c-1.79,4.65-4.47,8.87-8.05,12.66c-3.58,3.79-8.05,7.04-13.42,9.76
			c-5.37,2.72-11.68,4.79-18.92,6.21v0.47c6.02,1.26,10.98,3.12,14.86,5.56c3.88,2.45,7.03,5.44,9.43,8.99
			c2.4,3.55,4.28,7.59,5.63,12.13c1.35,4.54,2.55,9.52,3.6,14.97c1.05,5.6,1.98,10.71,2.82,15.32c0.83,4.61,1.94,8.6,3.34,11.95
			c1.4,3.35,3.29,5.96,5.7,7.81c2.4,1.85,5.74,2.78,10.02,2.78c0.79,0,1.9-0.04,3.34-0.12c1.44-0.08,3.03-0.24,4.78-0.47v9.11
			c-1.49,0.31-3.1,0.59-4.84,0.83c-1.75,0.24-3.51,0.41-5.3,0.53c-1.79,0.12-3.53,0.2-5.24,0.24c-1.7,0.04-3.21,0.06-4.52,0.06
			c-7.59,0-13.55-0.73-17.87-2.19c-4.32-1.46-7.64-3.73-9.95-6.8c-2.31-3.08-3.95-6.94-4.91-11.59c-0.96-4.65-1.88-10.17-2.75-16.56
			c-1.31-9.31-2.62-17.11-3.93-23.43c-1.31-6.31-3.14-11.38-5.5-15.2c-2.36-3.82-5.54-6.55-9.56-8.16
			c-4.02-1.62-9.47-2.43-16.37-2.43h-24.62v75.36h27.5v9.46H500.6v-9.46h26.19V372.22H500.6v-9.46H572.74z M552.32,440.37h17.41
			c9.43,0,17.3-0.71,23.63-2.13c6.33-1.42,11.43-3.65,15.32-6.68c3.88-3.04,6.63-6.9,8.25-11.59c1.61-4.69,2.42-10.35,2.42-16.98
			c0-5.52-0.65-10.23-1.96-14.14c-1.31-3.9-3.73-7.08-7.27-9.52c-3.54-2.44-8.42-4.24-14.67-5.38c-6.24-1.14-14.34-1.72-24.29-1.72
			h-18.85V440.37z"/>
		
			<linearGradient id="SVGID_00000141428646238272355860000011320011076982562205_" gradientUnits="userSpaceOnUse" x1="754.4521" y1="449.4817" x2="921.5252" y2="449.4817">
			<stop  offset="0" style="stop-color:#CCE0F4"/>
			<stop  offset="0.0732" style="stop-color:#CCB3BE"/>
			<stop  offset="0.1655" style="stop-color:#CD8081"/>
			<stop  offset="0.2334" style="stop-color:#CD605B"/>
			<stop  offset="0.2688" style="stop-color:#CD544C"/>
			<stop  offset="0.3354" style="stop-color:#CD3D31"/>
			<stop  offset="0.4368" style="stop-color:#CE1500"/>
			<stop  offset="0.5955" style="stop-color:#CE1500"/>
		</linearGradient>
		
			<linearGradient id="SVGID_00000008128023927387134910000018289055036218766004_" gradientUnits="userSpaceOnUse" x1="753.9521" y1="449.4817" x2="922.0252" y2="449.4817">
			<stop  offset="0.0578" style="stop-color:#EC0000"/>
			<stop  offset="0.2857" style="stop-color:#D11300"/>
			<stop  offset="0.3065" style="stop-color:#CE1500"/>
			<stop  offset="1" style="stop-color:#000000"/>
			<stop  offset="1" style="stop-color:#CCE0F4"/>
			<stop  offset="1" style="stop-color:#CCB0BB"/>
			<stop  offset="1" style="stop-color:#CD7D7D"/>
			<stop  offset="1" style="stop-color:#CD5D57"/>
			<stop  offset="1" style="stop-color:#CD5148"/>
		</linearGradient>
		
			<path style="fill:url(#SVGID_00000141428646238272355860000011320011076982562205_);stroke:url(#SVGID_00000008128023927387134910000018289055036218766004_);stroke-miterlimit:10;" d="
			M826.6,362.76c13.88,0,25.57,0.95,35.09,2.84c9.51,1.89,17.2,4.58,23.04,8.05c5.85,3.47,10.04,7.67,12.57,12.6
			c2.53,4.93,3.8,10.39,3.8,16.39c0,5.21-0.9,10.14-2.68,14.79c-1.79,4.65-4.47,8.87-8.05,12.66c-3.58,3.79-8.05,7.04-13.42,9.76
			c-5.37,2.72-11.68,4.79-18.92,6.21v0.47c6.02,1.26,10.98,3.12,14.86,5.56c3.88,2.45,7.03,5.44,9.43,8.99
			c2.4,3.55,4.28,7.59,5.63,12.13c1.35,4.54,2.55,9.52,3.6,14.97c1.05,5.6,1.98,10.71,2.82,15.32c0.83,4.61,1.94,8.6,3.34,11.95
			c1.4,3.35,3.29,5.96,5.7,7.81c2.4,1.85,5.74,2.78,10.02,2.78c0.79,0,1.9-0.04,3.34-0.12c1.44-0.08,3.03-0.24,4.78-0.47v9.11
			c-1.49,0.31-3.1,0.59-4.84,0.83c-1.75,0.24-3.51,0.41-5.3,0.53c-1.79,0.12-3.54,0.2-5.24,0.24c-1.7,0.04-3.21,0.06-4.52,0.06
			c-7.59,0-13.55-0.73-17.87-2.19c-4.32-1.46-7.64-3.73-9.95-6.8c-2.31-3.08-3.95-6.94-4.91-11.59c-0.96-4.65-1.88-10.17-2.75-16.56
			c-1.31-9.31-2.62-17.11-3.93-23.43c-1.31-6.31-3.14-11.38-5.5-15.2c-2.36-3.82-5.54-6.55-9.56-8.16
			c-4.02-1.62-9.47-2.43-16.37-2.43h-24.62v75.36h27.5v9.46h-79.22v-9.46h26.19V372.22h-26.19v-9.46H826.6z M806.17,440.37h17.41
			c9.43,0,17.3-0.71,23.63-2.13c6.33-1.42,11.43-3.65,15.32-6.68c3.88-3.04,6.63-6.9,8.25-11.59c1.61-4.69,2.42-10.35,2.42-16.98
			c0-5.52-0.65-10.23-1.96-14.14c-1.31-3.9-3.73-7.08-7.27-9.52c-3.53-2.44-8.43-4.24-14.66-5.38c-6.24-1.14-14.34-1.72-24.29-1.72
			h-18.85V440.37z"/>
		
			<linearGradient id="SVGID_00000142874897769799763880000000243973351473384068_" gradientUnits="userSpaceOnUse" x1="943.3102" y1="448.7126" x2="1111.9551" y2="448.7126">
			<stop  offset="0" style="stop-color:#CCE0F4"/>
			<stop  offset="9.039368e-03" style="stop-color:#CCD8EB"/>
			<stop  offset="0.0241" style="stop-color:#CCC3D1"/>
			<stop  offset="0.0433" style="stop-color:#CDA0A7"/>
			<stop  offset="0.0659" style="stop-color:#CD706E"/>
			<stop  offset="0.091" style="stop-color:#CE3425"/>
			<stop  offset="0.103" style="stop-color:#CE1500"/>
			<stop  offset="1" style="stop-color:#CE1500"/>
		</linearGradient>
		<path style="fill:url(#SVGID_00000142874897769799763880000000243973351473384068_);" d="M943.31,450.31
			c0-14.12,2.12-26.82,6.35-38.1c4.23-11.28,10.15-20.88,17.74-28.81c7.59-7.93,16.65-14.02,27.17-18.28
			c10.52-4.26,22.06-6.39,34.63-6.39c12.39,0,23.68,2.07,33.85,6.21c10.17,4.14,18.87,10.04,26.12,17.69
			c7.24,7.65,12.85,16.92,16.83,27.8c3.97,10.88,5.96,23.07,5.96,36.56c0,13.25-1.94,25.5-5.83,36.74
			c-3.89,11.24-9.49,20.92-16.83,29.05c-7.33,8.13-16.3,14.48-26.91,19.05c-10.6,4.57-22.59,6.86-35.94,6.86
			c-12.57,0-23.96-2.05-34.17-6.15c-10.21-4.1-18.94-9.98-26.19-17.63c-7.25-7.65-12.85-16.94-16.83-27.86
			C945.3,476.12,943.31,463.88,943.31,450.31z M971.72,449.6c0,10.88,0.63,20.41,1.9,28.57c1.26,8.16,3.05,15.18,5.37,21.06
			c2.31,5.88,5.13,10.75,8.45,14.61c3.32,3.87,7.03,6.94,11.13,9.23c4.1,2.29,8.55,3.89,13.36,4.79c4.8,0.91,9.86,1.36,15.19,1.36
			c5.32,0,10.41-0.45,15.25-1.36c4.84-0.91,9.36-2.52,13.55-4.85c4.19-2.32,7.99-5.46,11.39-9.41c3.4-3.94,6.31-8.93,8.71-14.97
			c2.4-6.03,4.26-13.21,5.56-21.53c1.31-8.32,1.96-18.04,1.96-29.16c0-10.88-0.63-20.41-1.9-28.57c-1.27-8.16-3.06-15.2-5.37-21.12
			c-2.31-5.92-5.13-10.8-8.45-14.67c-3.32-3.86-7-6.94-11.06-9.23c-4.06-2.29-8.49-3.88-13.29-4.79c-4.8-0.91-9.87-1.36-15.19-1.36
			c-5.33,0-10.43,0.47-15.32,1.42c-4.89,0.95-9.43,2.56-13.62,4.85c-4.19,2.29-7.99,5.42-11.39,9.41c-3.4,3.98-6.31,8.97-8.71,14.97
			c-2.4,6-4.26,13.17-5.56,21.53C972.38,428.74,971.72,438.48,971.72,449.6z"/>
		
			<linearGradient id="SVGID_00000117674506418571666350000015145421638231303829_" gradientUnits="userSpaceOnUse" x1="1119.9918" y1="447.8253" x2="1313.1219" y2="447.8253">
			<stop  offset="0.0247" style="stop-color:#E78A80"/>
			<stop  offset="0.3543" style="stop-color:#CF1A06"/>
			<stop  offset="0.8216" style="stop-color:#CE1500"/>
			<stop  offset="0.9874" style="stop-color:#CE1500"/>
		</linearGradient>
		<path style="fill:url(#SVGID_00000117674506418571666350000015145421638231303829_);" d="M1183.76,525.2v9.46h-63.77v-9.46h24.88
			l68.09-164.22h10.34l63.9,164.22h25.93v9.46h-80.53v-9.46h27.23l-19.64-50.52h-61.8l-20.82,50.52H1183.76z M1210.08,398.37
			l-27.63,66.73h54.08l-25.92-66.73H1210.08z"/>
		
			<linearGradient id="SVGID_00000181063687596737519470000016312981600775620787_" gradientUnits="userSpaceOnUse" x1="1407.314" y1="918.4564" x2="1407.314" y2="922.9477">
			<stop  offset="0.0578" style="stop-color:#CF1803"/>
			<stop  offset="0.6633" style="stop-color:#CF1803"/>
			<stop  offset="0.8706" style="stop-color:#EDA9A1"/>
			<stop  offset="1" style="stop-color:#FFFFFF"/>
		</linearGradient>
		<path style="fill:url(#SVGID_00000181063687596737519470000016312981600775620787_);" d="M1321.16,534.67v-9.46h26.19V372.22
			h-26.19v-9.46h79.08c17.63,0,32.41,1.97,44.32,5.92c11.91,3.94,21.49,9.56,28.74,16.86c7.24,7.3,12.42,16.11,15.52,26.44
			c3.1,10.33,4.65,21.89,4.65,34.67c0,7.42-0.55,14.73-1.64,21.95c-1.09,7.22-2.99,14.08-5.7,20.59
			c-2.71,6.51-6.35,12.54-10.93,18.1c-4.58,5.56-10.41,10.37-17.48,14.43c-7.07,4.06-15.5,7.24-25.27,9.52
			c-9.78,2.29-21.17,3.43-34.17,3.43H1321.16z M1372.88,525.2h23.7c13.44,0,24.59-1.18,33.45-3.55c8.86-2.37,15.86-6.51,21.01-12.42
			c5.15-5.92,8.77-13.92,10.87-24.02c2.1-10.1,3.14-22.87,3.14-38.33c0-8.44-0.33-16.17-0.98-23.19c-0.66-7.02-1.86-13.29-3.6-18.81
			c-1.75-5.52-4.17-10.33-7.27-14.43c-3.1-4.1-7.07-7.49-11.91-10.17c-4.84-2.68-10.72-4.69-17.61-6.03
			c-6.9-1.34-15.01-2.01-24.35-2.01h-26.45V525.2z"/>
	</g>
</g>
<g>
	<g>
		<path class="st19" d="M529.11,587.01c-0.83-5.64-2.5-10.3-3.26-12.01c-1.36-2.58-1.97-3.56-6.44-3.56h-4.85v57.62
			c0,10.3,0.76,11.03,7.5,11.89v4.54h-25.15v-4.54c6.44-0.86,7.12-1.59,7.12-11.89v-57.62h-4.62c-4.24,0-5.46,1.1-6.89,4.05
			c-1.06,2.33-2.12,6.74-3.11,11.65h-2.88c0.53-8.95,1.06-18.51,1.21-24.4h2.27c1.14,2.82,2.05,3.07,4.32,3.07h30.3
			c2.05,0,3.11-0.74,4.39-3.07h2.2c0.08,5.15,0.38,15.94,0.76,23.91L529.11,587.01z"/>
		<path class="st19" d="M584.57,646.23c-0.45,0-1.36,0-2.27-0.12c-9.62-0.74-12.42-4.05-14.7-9.2c-3.03-6.74-5.23-14.22-7.8-21.58
			c-1.14-3.31-2.2-4.05-4.62-4.05l-1.52-0.12v17.9c0,9.93,0.76,10.79,6.44,11.89v4.54h-23.18v-4.54c5.76-0.98,6.44-1.96,6.44-11.89
			v-46.96c0-9.69-0.76-11.03-6.44-11.77v-4.54h21.97c6.74,0,10.61,1.23,13.71,4.66c3.03,3.31,5.08,8.71,5.08,16.31
			c0,10.91-4.47,16.67-9.47,19.86c1.14,3.68,4.09,11.65,6.36,17.29c2.65,6.74,4.32,10.05,5.76,12.75c1.74,3.19,2.58,4.17,4.77,5.39
			L584.57,646.23z M555.7,606.14c3.26,0,5.76-0.86,7.42-3.19c2.5-3.43,3.56-8.09,3.56-14.34c0-13-4.62-17.65-8.86-17.65
			c-2.05,0-3.03,0.49-3.48,1.23c-0.53,0.74-0.68,2.21-0.68,4.66v29.3H555.7z"/>
		<path class="st19" d="M610.33,645.49v-4.54c4.77-1.1,4.77-2.45,3.71-7.72c-0.76-3.68-1.97-9.2-3.11-14.1h-14.77
			c-0.83,3.8-1.89,8.46-2.65,12.26c-1.59,7.72,0.23,8.71,6.21,9.56v4.54h-18.71v-4.54c4.77-0.98,5.99-2.08,8.56-12.38l15.76-63.39
			l3.64-1.1c4.85,21.33,10,43.16,14.92,63.63c2.8,11.4,3.48,12.26,8.41,13.24v4.54H610.33z M603.66,586.89
			c-2.2,8.83-4.32,17.04-6.21,25.99h12.05L603.66,586.89z"/>
		<path class="st19" d="M680.94,570.34c-5,0.86-6.52,1.96-9.39,13.61c-2.35,9.44-10.15,39.85-15.76,62.9h-4.17
			c-2.12-9.56-11.97-51.62-15.15-64.61c-2.35-9.2-3.33-11.16-8.26-11.89v-4.54h23.11l-0.08,4.54c-5.53,1.23-5.53,2.08-4.32,7.23
			c2.35,10.3,8.03,35.56,10.61,46.34c4.55-17.53,8.64-34.21,10.38-42.18c1.89-8.46,1.36-10.3-5-11.4v-4.54h18.03V570.34z"/>
		<path class="st19" d="M722.45,624.65c-0.38,3.31-2.5,17.41-3.18,20.84h-39.32v-4.41c6.89-1.1,7.35-1.72,7.35-12.01v-46.83
			c0-10.42-0.91-11.16-6.06-11.89v-4.54h24.62c7.95,0,10.61-0.12,11.67-0.25c0.08,2.21,0.45,12.26,0.76,19.86l-2.95,0.61
			c-0.68-4.17-1.97-9.2-3.26-11.4c-1.36-2.45-2.35-3.19-6.21-3.19h-4.92c-2.88,0-3.18,0.25-3.18,4.41v25.62h7.42
			c4.24,0,5-1.84,6.14-10.54h2.95v27.34h-2.95c-1.21-9.07-1.82-10.54-6.21-10.54h-7.35v21.09c0,8.46,0.15,11.03,4.85,11.16h5.38
			c4.24,0,5.38-0.86,7.05-4.17c1.89-3.56,3.41-8.09,4.62-12.26L722.45,624.65z"/>
		<path class="st19" d="M767.08,623.91c-0.61,5.27-2.73,18.27-3.41,21.58h-37.58v-4.54c6.67-0.74,7.27-1.59,7.27-11.89v-46.71
			c0-10.3-0.76-11.28-6.44-12.01v-4.54h23.64v4.54c-5.91,0.86-6.67,1.72-6.67,12.01v47.57c0,6.74,0.15,9.81,4.32,9.93
			c0.15,0.12,3.64,0.12,3.94,0.12c4.32,0,5.46-1.47,7.27-4.78c1.44-2.45,3.41-7.72,4.77-12.75L767.08,623.91z"/>
		<path class="st19" d="M829.73,624.65c-0.38,3.31-2.5,17.41-3.18,20.84h-39.32v-4.41c6.89-1.1,7.35-1.72,7.35-12.01v-46.83
			c0-10.42-0.91-11.16-6.06-11.89v-4.54h24.62c7.96,0,10.61-0.12,11.67-0.25c0.08,2.21,0.45,12.26,0.76,19.86l-2.96,0.61
			c-0.68-4.17-1.97-9.2-3.26-11.4c-1.36-2.45-2.35-3.19-6.21-3.19h-4.92c-2.88,0-3.18,0.25-3.18,4.41v25.62h7.42
			c4.24,0,5-1.84,6.14-10.54h2.95v27.34h-2.95c-1.21-9.07-1.82-10.54-6.21-10.54h-7.35v21.09c0,8.46,0.15,11.03,4.85,11.16h5.38
			c4.24,0,5.38-0.86,7.05-4.17c1.89-3.56,3.41-8.09,4.62-12.26L829.73,624.65z"/>
		<path class="st19" d="M882,570.34c-5,0.86-6.52,1.96-9.39,13.61c-2.35,9.44-10.15,39.85-15.76,62.9h-4.17
			c-2.12-9.56-11.97-51.62-15.15-64.61c-2.35-9.2-3.33-11.16-8.26-11.89v-4.54h23.11l-0.08,4.54c-5.53,1.23-5.53,2.08-4.32,7.23
			c2.35,10.3,8.03,35.56,10.61,46.34c4.55-17.53,8.64-34.21,10.38-42.18c1.89-8.46,1.36-10.3-5-11.4v-4.54H882V570.34z"/>
		<path class="st19" d="M923.52,624.65c-0.38,3.31-2.5,17.41-3.18,20.84h-39.32v-4.41c6.89-1.1,7.35-1.72,7.35-12.01v-46.83
			c0-10.42-0.91-11.16-6.06-11.89v-4.54h24.62c7.96,0,10.61-0.12,11.67-0.25c0.08,2.21,0.45,12.26,0.76,19.86l-2.96,0.61
			c-0.68-4.17-1.97-9.2-3.26-11.4c-1.36-2.45-2.35-3.19-6.21-3.19H902c-2.88,0-3.18,0.25-3.18,4.41v25.62h7.42
			c4.24,0,5-1.84,6.14-10.54h2.95v27.34h-2.95c-1.21-9.07-1.82-10.54-6.21-10.54h-7.35v21.09c0,8.46,0.15,11.03,4.85,11.16h5.38
			c4.24,0,5.38-0.86,7.05-4.17c1.89-3.56,3.41-8.09,4.62-12.26L923.52,624.65z"/>
		<path class="st19" d="M975.64,646.23c-0.46,0-1.36,0-2.27-0.12c-9.62-0.74-12.42-4.05-14.7-9.2c-3.03-6.74-5.23-14.22-7.8-21.58
			c-1.14-3.31-2.2-4.05-4.62-4.05l-1.51-0.12v17.9c0,9.93,0.76,10.79,6.44,11.89v4.54h-23.18v-4.54c5.76-0.98,6.44-1.96,6.44-11.89
			v-46.96c0-9.69-0.76-11.03-6.44-11.77v-4.54h21.97c6.74,0,10.61,1.23,13.71,4.66c3.03,3.31,5.08,8.71,5.08,16.31
			c0,10.91-4.47,16.67-9.47,19.86c1.14,3.68,4.09,11.65,6.36,17.29c2.65,6.74,4.32,10.05,5.76,12.75c1.74,3.19,2.58,4.17,4.77,5.39
			L975.64,646.23z M946.78,606.14c3.26,0,5.76-0.86,7.42-3.19c2.5-3.43,3.56-8.09,3.56-14.34c0-13-4.62-17.65-8.86-17.65
			c-2.05,0-3.03,0.49-3.49,1.23c-0.53,0.74-0.68,2.21-0.68,4.66v29.3H946.78z"/>
		<path class="st19" d="M1021.1,570.34c-4.85,0.86-6.59,2.57-9.32,10.05c-2.73,7.6-5.08,14.34-8.79,26.6
			c-0.61,1.96-0.83,3.43-0.83,6.5v15.2c0,10.67,0.61,11.03,6.82,12.26v4.54h-23.94v-4.54c5.98-1.23,6.51-1.59,6.51-12.26v-14.1
			c0-2.7-0.3-3.92-0.83-5.64c-2.2-7.23-5-15.45-9.55-28.32c-2.8-7.97-3.94-9.56-8.33-10.3v-4.54h22.2v4.54
			c-5.08,1.1-4.92,2.7-3.64,6.99c2.5,7.97,5.76,17.78,8.64,26.73c2.27-6.87,5.91-18.64,8.03-26.11c1.44-4.9,0.83-6.5-4.62-7.6v-4.54
			h17.65V570.34z"/>
		<path class="st19" d="M1107.09,570.34c-5.46,1.1-6.44,2.94-8.56,13c-1.97,9.44-7.65,38.5-12.42,63.51h-4.24
			c-3.86-17.66-8.18-35.8-12.5-54.19c-3.94,18.51-7.73,36.41-11.29,54.19h-4.39c-3.03-17.29-7.88-42.67-12.12-64.37
			c-1.89-9.32-3.03-11.4-7.65-12.14v-4.54h22.88v4.54c-5.68,0.86-5.83,2.7-4.77,9.07c2.5,14.1,5.15,28.44,7.65,41.81
			c3.86-17.29,7.5-35.8,10.99-54.8h4.02c4.17,18.76,8.48,37.03,12.65,54.93c2.8-13.24,6.44-33.72,7.5-40.7
			c1.06-7.23,0.3-9.44-6.21-10.3v-4.54h18.49V570.34z"/>
		<path class="st19" d="M1132.09,645.49v-4.54c4.77-1.1,4.77-2.45,3.71-7.72c-0.76-3.68-1.97-9.2-3.11-14.1h-14.77
			c-0.83,3.8-1.89,8.46-2.65,12.26c-1.59,7.72,0.23,8.71,6.21,9.56v4.54h-18.71v-4.54c4.77-0.98,5.98-2.08,8.56-12.38l15.76-63.39
			l3.64-1.1c4.85,21.33,10,43.16,14.92,63.63c2.8,11.4,3.48,12.26,8.41,13.24v4.54H1132.09z M1125.42,586.89
			c-2.2,8.83-4.32,17.04-6.21,25.99h12.05L1125.42,586.89z"/>
		<path class="st19" d="M1198.61,570.34c-4.85,0.86-6.59,2.57-9.32,10.05c-2.73,7.6-5.08,14.34-8.79,26.6
			c-0.61,1.96-0.83,3.43-0.83,6.5v15.2c0,10.67,0.61,11.03,6.82,12.26v4.54h-23.94v-4.54c5.98-1.23,6.51-1.59,6.51-12.26v-14.1
			c0-2.7-0.3-3.92-0.83-5.64c-2.2-7.23-5-15.45-9.55-28.32c-2.8-7.97-3.94-9.56-8.33-10.3v-4.54h22.2v4.54
			c-5.08,1.1-4.92,2.7-3.64,6.99c2.5,7.97,5.76,17.78,8.64,26.73c2.27-6.87,5.91-18.64,8.03-26.11c1.44-4.9,0.83-6.5-4.62-7.6v-4.54
			h17.65V570.34z"/>
	</g>
</g>
</svg>
